# xmcd CD database file
#
# Track frame offsets:
#	150
#	16670
#	39535
#	55457
#	74080
#	92627
#	105722
#	122180
#	141022
#	159910
#	175092
#	191352
#
# Disc length: 2774 seconds
#
# Revision: 0
# Processed by: cddbd v1.5.1PL2 Copyright (c) Steve Scherf et al.
# Submitted via: CDex 1.50
#
DISCID=9e0ad40c
DTITLE=Various Artist - 南仏プロヴァンスの12か月
DYEAR=1900
DGENRE=Instrumental
TTITLE0=Pascal Dubroca - Jano le roi du ciseau
TTITLE1=Daniel Seff - Joue d'avance
TTITLE2=Bruno Maman - Enfin la nuit
TTITLE3=Pascal Dubroca - Mimi l'auverpin
TTITLE4=Pascal Dubroca - La gitane en fleurs
TTITLE5=Pascal Dubroca - Les femmes de mon quartier
TTITLE6=Richard Gilly - Rousse de secours
TTITLE7=Pascal Dubroca - A la butte aux cailles
TTITLE8=Pascal Dubroca - Chez l'bougnat
TTITLE9=Richard Gilly - J'oublie
TTITLE10=Daniel Seff - Loulou
TTITLE11=Richard Gilly - Attends
EXTD=
EXTT0=
EXTT1=
EXTT2=
EXTT3=
EXTT4=
EXTT5=
EXTT6=
EXTT7=
EXTT8=
EXTT9=
EXTT10=
EXTT11=
PLAYORDER=
